<?xml version="1.0" standalone="no"?>
<!DOCTYPE svg PUBLIC "-//W3C//DTD SVG 20010904//EN"
 "http://www.w3.org/TR/2001/REC-SVG-20010904/DTD/svg10.dtd">
<svg version="1.0" xmlns="http://www.w3.org/2000/svg"
 width="1988.000000pt" height="2000.000000pt" viewBox="0 0 1988.000000 2000.000000"
 preserveAspectRatio="xMidYMid meet">

<g transform="translate(0.000000,2000.000000) scale(0.100000,-0.100000)"
fill="#000000" stroke="none">
<path d="M9520 14920 c-362 -34 -767 -116 -1095 -220 -253 -81 -654 -259 -900
-399 -416 -238 -851 -590 -1164 -946 -152 -172 -199 -237 -207 -290 -9 -61 16
-123 66 -169 46 -42 97 -54 160 -37 49 13 80 42 205 191 275 331 676 668 1070
900 565 333 1229 543 1890 600 303 26 766 9 1073 -40 935 -150 1780 -585 2428
-1251 116 -120 289 -317 283 -323 -2 -2 -29 -11 -59 -21 -78 -25 -194 -87
-272 -145 -82 -62 -200 -186 -259 -273 -39 -58 -55 -72 -134 -115 -503 -278
-1101 -402 -1807 -373 l-218 8 -52 41 c-68 52 -168 163 -398 436 -316 375
-398 452 -545 505 -295 106 -726 127 -1225 61 -827 -111 -1945 -482 -2455
-814 -401 -261 -693 -786 -794 -1426 -62 -387 -60 -826 5 -1245 69 -451 235
-906 462 -1265 80 -126 243 -331 346 -435 190 -191 344 -304 561 -411 143 -71
259 -111 416 -146 234 -50 708 -21 1412 87 665 102 1482 317 2122 558 983 369
1829 874 2498 1491 l122 113 50 -38 c59 -46 200 -120 270 -142 75 -24 219 -47
294 -47 88 1 201 22 285 54 38 14 70 25 72 23 3 -3 -72 -230 -120 -360 -26
-70 -32 -99 -23 -102 6 -2 70 -13 142 -25 245 -40 280 -79 210 -236 -127 -288
-643 -767 -1320 -1226 -1058 -718 -2479 -1411 -3624 -1769 -670 -209 -1222
-303 -1513 -258 -200 31 -236 84 -163 237 101 212 312 440 715 775 113 94 211
175 218 182 10 9 -36 30 -200 95 -117 46 -319 137 -448 202 -246 124 -278 134
-347 107 -119 -45 -151 -213 -57 -301 28 -25 254 -151 328 -182 l35 -14 -153
-154 c-267 -269 -398 -455 -467 -663 -33 -97 -33 -246 -1 -324 68 -162 203
-261 422 -308 67 -14 128 -18 290 -18 253 1 453 22 700 76 861 188 1791 537
2845 1069 880 444 1596 886 2164 1337 533 424 842 774 941 1069 28 83 33 113
33 189 0 108 -23 175 -87 263 -38 51 -135 130 -177 144 -9 3 0 48 29 154 37
134 102 432 102 470 0 8 22 54 49 102 63 112 132 279 171 418 97 344 116 751
53 1144 -47 296 -162 615 -303 845 -159 260 -413 483 -631 554 -29 9 -55 38
-146 159 -262 349 -571 658 -932 931 -567 429 -1295 740 -2026 865 -278 48
-404 58 -765 61 -195 2 -398 0 -450 -5z m4214 -2370 c408 -170 710 -806 709
-1495 -1 -322 -60 -606 -177 -848 -66 -136 -119 -211 -220 -313 -137 -138
-266 -193 -426 -181 -140 10 -261 70 -390 194 -534 509 -641 1683 -215 2344
62 97 203 235 281 276 95 50 155 64 265 59 79 -3 108 -9 173 -36z"/>
</g>
</svg>
